<svg width="18" height="18" viewBox="0 0 18 18" fill="none" xmlns="http://www.w3.org/2000/svg"><path d="M7.29571 9.28904C7.58201 9.67179 7.94728 9.98849 8.36674 10.2177C8.7862 10.4468 9.25005 10.5831 9.72681 10.6173C10.2036 10.6514 10.6821 10.5826 11.1299 10.4156C11.5778 10.2485 11.9845 9.98709 12.3224 9.64904L14.3224 7.64904C14.9296 7.02037 15.2655 6.17836 15.258 5.30437C15.2504 4.43038 14.8998 3.59434 14.2818 2.97631C13.6637 2.35828 12.8277 2.00772 11.9537 2.00013C11.0797 1.99253 10.2377 2.32851 9.60904 2.93571L8.46237 4.07571" stroke="white" stroke-width="1.5" stroke-linecap="round" stroke-linejoin="round"/><path d="M9.96237 7.9557C9.67607 7.57294 9.3108 7.25624 8.89134 7.02707C8.47188 6.7979 8.00803 6.66162 7.53127 6.62747C7.05451 6.59333 6.57598 6.66212 6.12814 6.82918C5.6803 6.99623 5.27363 7.25765 4.93571 7.5957L2.93571 9.5957C2.32851 10.2244 1.99253 11.0664 2.00013 11.9404C2.00772 12.8144 2.35828 13.6504 2.97631 14.2684C3.59434 14.8865 4.43038 15.237 5.30437 15.2446C6.17836 15.2522 7.02036 14.9162 7.64904 14.309L8.78904 13.169" stroke="white" stroke-width="1.5" stroke-linecap="round" stroke-linejoin="round"/></svg>