<svg width="18" height="18" viewBox="0 0 18 18" fill="none" xmlns="http://www.w3.org/2000/svg"><path d="M17 2.72552V7.08916H12.6364" stroke="white" stroke-width="1.5" stroke-linecap="round" stroke-linejoin="round"/><path d="M1 14.3619V9.99829H5.36364" stroke="white" stroke-width="1.5" stroke-linecap="round" stroke-linejoin="round"/><path d="M2.82545 6.36192C3.1943 5.31958 3.82119 4.38766 4.64761 3.65313C5.47404 2.91859 6.47307 2.40538 7.55148 2.16138C8.6299 1.91737 9.75255 1.95053 10.8147 2.25775C11.8768 2.56497 12.8438 3.13625 13.6255 3.91828L17 7.08919M1 9.99828L4.37455 13.1692C5.15618 13.9512 6.12318 14.5225 7.18532 14.8297C8.24745 15.1369 9.3701 15.1701 10.4485 14.9261C11.5269 14.6821 12.526 14.1689 13.3524 13.4343C14.1788 12.6998 14.8057 11.7679 15.1745 10.7256" stroke="white" stroke-width="1.5" stroke-linecap="round" stroke-linejoin="round"/></svg>