<svg width="18" height="18" viewBox="0 0 18 18" fill="none" xmlns="http://www.w3.org/2000/svg"><path d="M6.33334 4.66667V3.33333C6.33334 2.97971 6.47381 2.64057 6.72386 2.39052C6.97391 2.14048 7.31305 2 7.66667 2H10.3333C10.687 2 11.0261 2.14048 11.2761 2.39052C11.5262 2.64057 11.6667 2.97971 11.6667 3.33333V4.66667M13.6667 4.66667V14C13.6667 14.3536 13.5262 14.6928 13.2761 14.9428C13.0261 15.1929 12.687 15.3333 12.3333 15.3333H5.66667C5.31305 15.3333 4.97391 15.1929 4.72386 14.9428C4.47381 14.6928 4.33334 14.3536 4.33334 14V4.66667H13.6667Z" stroke="white" stroke-width="1.5" stroke-linecap="round" stroke-linejoin="round"/><path d="M7.66666 8V12" stroke="white" stroke-width="1.5" stroke-linecap="round" stroke-linejoin="round"/><path d="M10.3333 8V12" stroke="white" stroke-width="1.5" stroke-linecap="round" stroke-linejoin="round"/><path d="M3 4.66669H4.33333H15" stroke="white" stroke-width="1.5" stroke-linecap="round" stroke-linejoin="round"/></svg>